<svg width="720" height="180" viewBox="0 0 720 180" fill="none" xmlns="http://www.w3.org/2000/svg" role="img" aria-label="Keptra">
  <defs>
    <linearGradient id="keptraMarkA" x1="36" y1="24" x2="154" y2="162" gradientUnits="userSpaceOnUse">
      <stop stop-color="#59DDB9"/>
      <stop offset="0.52" stop-color="#37B69F"/>
      <stop offset="1" stop-color="#1E6E92"/>
    </linearGradient>
    <linearGradient id="keptraMarkB" x1="52" y1="42" x2="148" y2="142" gradientUnits="userSpaceOnUse">
      <stop stop-color="#0E1A1D"/>
      <stop offset="1" stop-color="#142629"/>
    </linearGradient>
  </defs>
  <g transform="translate(12 10)">
    <rect x="0" y="0" width="160" height="160" rx="36" fill="#0D1416"/>
    <rect x="7" y="7" width="146" height="146" rx="30" fill="url(#keptraMarkB)" stroke="url(#keptraMarkA)" stroke-width="8"/>
    <path d="M80 30L111 84H49L80 30Z" fill="url(#keptraMarkA)"/>
    <path d="M132 72L101 126L70 72H132Z" fill="#52D7B5"/>
    <path d="M34 95L65 42L96 95H34Z" fill="#2585A1"/>
    <path d="M55 86L76 108L119 58" stroke="#F6FBFA" stroke-width="14" stroke-linecap="round" stroke-linejoin="round"/>
    <path d="M42 42H64M42 42V64M118 42H140M140 42V64M42 118V140H64M118 140H140V118" stroke="#F6FBFA" stroke-opacity="0.78" stroke-width="7" stroke-linecap="round"/>
  </g>
  <text x="204" y="116" fill="#0B1214" font-family="Inter, ui-sans-serif, system-ui, -apple-system, BlinkMacSystemFont, 'Segoe UI', sans-serif" font-size="84" font-weight="800" letter-spacing="-1">Keptra</text>
  <text x="208" y="146" fill="#4B5C62" font-family="Inter, ui-sans-serif, system-ui, -apple-system, BlinkMacSystemFont, 'Segoe UI', sans-serif" font-size="22" font-weight="650" letter-spacing="4">KEEPERS AT SPEED</text>
</svg>
