<svg width="256" height="256" viewBox="0 0 256 256" fill="none" xmlns="http://www.w3.org/2000/svg" role="img" aria-label="Keptra mark">
  <defs>
    <linearGradient id="keptraMarkA" x1="58" y1="38" x2="218" y2="226" gradientUnits="userSpaceOnUse">
      <stop stop-color="#59DDB9"/>
      <stop offset="0.52" stop-color="#37B69F"/>
      <stop offset="1" stop-color="#1E6E92"/>
    </linearGradient>
    <linearGradient id="keptraMarkB" x1="70" y1="56" x2="202" y2="194" gradientUnits="userSpaceOnUse">
      <stop stop-color="#0E1A1D"/>
      <stop offset="1" stop-color="#142629"/>
    </linearGradient>
  </defs>
  <rect width="256" height="256" rx="56" fill="#0D1416"/>
  <rect x="13" y="13" width="230" height="230" rx="46" fill="url(#keptraMarkB)" stroke="url(#keptraMarkA)" stroke-width="12"/>
  <path d="M128 49L178 136H78L128 49Z" fill="url(#keptraMarkA)"/>
  <path d="M211 116L161 202L112 116H211Z" fill="#52D7B5"/>
  <path d="M55 152L104 67L154 152H55Z" fill="#2585A1"/>
  <path d="M88 139L121 173L190 92" stroke="#F6FBFA" stroke-width="21" stroke-linecap="round" stroke-linejoin="round"/>
  <path d="M67 67H101M67 67V101M188 67H222M222 67V101M67 188V222H101M188 222H222V188" stroke="#F6FBFA" stroke-opacity="0.78" stroke-width="11" stroke-linecap="round"/>
</svg>
